<svg width="375" height="528" viewBox="0 0 375 528" fill="none" xmlns="http://www.w3.org/2000/svg">
<path d="M342.33 449.082C342.33 445.325 339.284 442.273 335.519 442.273C331.761 442.273 328.708 445.318 328.708 449.082C328.708 452.84 331.754 455.892 335.519 455.892C339.284 455.892 342.33 452.847 342.33 449.082ZM332.326 449.082C332.326 447.315 333.758 445.883 335.526 445.883C337.294 445.883 338.726 447.315 338.726 449.082C338.726 450.85 337.294 452.282 335.526 452.282C333.758 452.282 332.326 450.85 332.326 449.082Z" fill="#992D3B"/>
<path d="M342.33 426.335C342.33 422.577 339.285 419.525 335.519 419.525C331.761 419.525 328.708 422.571 328.708 426.335C328.708 430.093 331.754 433.144 335.519 433.144C339.285 433.144 342.33 430.093 342.33 426.335ZM332.326 426.335C332.326 424.567 333.758 423.135 335.526 423.135C337.294 423.135 338.726 424.567 338.726 426.335C338.726 428.103 337.294 429.535 335.526 429.535C333.758 429.528 332.326 428.103 332.326 426.335Z" fill="#992D3B"/>
<path d="M39.0708 198.983C37.644 195.563 33.7148 193.948 30.2947 195.374C26.8745 196.801 25.2585 200.729 26.6853 204.148C28.1121 207.568 32.0413 209.184 35.4614 207.757C38.8816 206.331 40.4976 202.402 39.0708 198.983Z" fill="#867B35"/>
<path d="M21.4615 128.425C21.4615 134.724 26.5715 139.833 32.8714 139.833C39.1714 139.833 44.2813 134.724 44.2813 128.425C44.2813 122.127 39.1714 117.018 32.8714 117.018C26.5715 117.018 21.4615 122.127 21.4615 128.425ZM38.3175 128.425C38.3175 131.43 35.8836 133.864 32.8782 133.864C29.8727 133.864 27.4388 131.43 27.4388 128.425C27.4388 125.421 29.8727 122.987 32.8782 122.987C35.8836 122.987 38.3175 125.421 38.3175 128.425Z" fill="#867B35"/>
<path d="M26.2488 102.169C26.2488 105.826 29.2139 108.79 32.8715 108.79C36.5291 108.79 39.4942 105.826 39.4942 102.169C39.4942 98.5122 36.5291 95.5477 32.8715 95.5477C29.2139 95.5477 26.2488 98.5122 26.2488 102.169ZM34.66 102.169C34.66 103.157 33.8599 103.957 32.8715 103.957C31.8831 103.957 31.083 103.157 31.083 102.169C31.083 101.181 31.8831 100.381 32.8715 100.381C33.8599 100.381 34.66 101.181 34.66 102.169Z" fill="#992D3B"/>
<path d="M27.0018 153.774C27.0018 157.021 29.6307 159.65 32.8782 159.65C36.1257 159.65 38.7546 157.021 38.7546 153.774C38.7546 150.528 36.1257 147.899 32.8782 147.899C29.6307 147.899 27.0018 150.528 27.0018 153.774ZM35.6752 153.774C35.6752 155.321 34.4179 156.578 32.8715 156.578C31.3251 156.578 30.0678 155.321 30.0678 153.774C30.0678 152.228 31.3251 150.971 32.8715 150.971C34.4179 150.971 35.6752 152.228 35.6752 153.774Z" fill="#992D3B"/>
<path d="M250.043 47.6326L254.635 43.0347L253.283 41.6836L247.333 47.6326L253.283 53.5749L254.635 52.2238L250.043 47.6326Z" fill="#867B35"/>
<path d="M258.064 47.6326L262.656 43.0347L261.304 41.6836L255.354 47.6326L261.304 53.5749L262.656 52.2238L258.064 47.6326Z" fill="#867B35"/>
<path d="M266.179 47.6326L270.778 43.0347L269.42 41.6836L263.476 47.6326L269.42 53.5749L270.778 52.2238L266.179 47.6326Z" fill="#867B35"/>
<path d="M233.906 47.6326L238.498 43.0347L237.147 41.6835L231.196 47.6326L237.147 53.5749L238.498 52.2238L233.906 47.6326Z" fill="#867B35"/>
<path d="M241.927 47.6326L246.519 43.0347L245.168 41.6836L239.218 47.6326L245.168 53.5749L246.519 52.2238L241.927 47.6326Z" fill="#867B35"/>
<path d="M210.797 484.091C210.797 478.957 206.634 474.795 201.498 474.795C196.363 474.795 192.2 478.957 192.2 484.091C192.2 489.226 196.363 493.388 201.498 493.388C206.634 493.388 210.797 489.226 210.797 484.091Z" fill="#992D3B"/>
<path d="M201.478 439.127L196.879 434.536L195.528 435.887L201.478 441.836L207.429 435.887L206.07 434.536L201.478 439.127Z" fill="#867B35"/>
<path d="M201.478 431.108L196.879 426.516L195.528 427.868L201.478 433.817L207.429 427.868L206.07 426.516L201.478 431.108Z" fill="#867B35"/>
<path d="M201.478 422.994L196.879 418.396L195.528 419.754L201.478 425.696L207.429 419.754L206.07 418.396L201.478 422.994Z" fill="#867B35"/>
<path d="M201.478 455.26L196.879 450.669L195.528 452.02L201.478 457.969L207.429 452.02L206.07 450.669L201.478 455.26Z" fill="#867B35"/>
<path d="M201.478 447.241L196.879 442.65L195.528 444.001L201.478 449.95L207.429 444.001L206.07 442.65L201.478 447.241Z" fill="#867B35"/>
<path d="M60.6533 324.173L71.6531 335.224L60.6533 346.282L71.6531 357.333L60.6533 368.384L70.3554 378.131L60.6533 387.885L71.6531 398.936L60.6533 409.994L71.6531 421.045L60.6533 432.096L71.5724 443.066L72.7961 441.843L63.094 432.096L74.0937 421.045L63.094 409.994L74.0937 398.936L63.094 387.885L72.8028 378.131L63.094 368.384L74.0937 357.333L63.094 346.282L74.0937 335.224L63.094 324.173L72.7961 314.419L71.5724 313.202L60.6533 324.173Z" fill="#247C44"/>
<path d="M40.9868 324.173L51.9866 335.224L40.9868 346.282L51.9866 357.333L40.9868 368.384L49.714 377.149L52.1614 377.156L43.4275 368.384L54.4272 357.333L43.4275 346.282L54.4272 335.224L43.4275 324.173L53.1296 314.419L51.8992 313.202L40.9868 324.173Z" fill="#867B35"/>
<path d="M327.047 98.418L338.047 109.469L327.047 120.527L338.047 131.578L327.047 142.629L338.067 153.694L339.237 152.423L329.481 142.629L340.481 131.578L329.481 120.527L340.481 109.469L329.481 98.418L339.184 88.6642L337.96 87.4475L327.047 98.418Z" fill="#867B35"/>
<path d="M288.972 66.6764C288.972 67.4763 288.32 68.1216 287.526 68.1216C286.726 68.1216 286.081 67.4696 286.081 66.6764C286.081 65.8832 286.733 65.2311 287.526 65.2311C288.326 65.2311 288.972 65.8764 288.972 66.6764Z" fill="#247C44"/>
<path d="M301.39 66.6764C301.39 67.4763 300.738 68.1216 299.945 68.1216C299.145 68.1216 298.499 67.4696 298.499 66.6764C298.499 65.8831 299.151 65.2311 299.945 65.2311C300.738 65.2311 301.39 65.8764 301.39 66.6764Z" fill="#247C44"/>
<path d="M301.39 53.0641C301.39 53.864 300.738 54.5094 299.945 54.5094C299.145 54.5094 298.499 53.8573 298.499 53.0641C298.499 52.2642 299.151 51.6189 299.945 51.6189C300.738 51.6121 301.39 52.2642 301.39 53.0641Z" fill="#247C44"/>
<path d="M313.809 66.6764C313.809 67.4763 313.157 68.1216 312.363 68.1216C311.563 68.1216 310.918 67.4696 310.918 66.6764C310.918 65.8831 311.57 65.2311 312.363 65.2311C313.157 65.2311 313.809 65.8764 313.809 66.6764Z" fill="#247C44"/>
<path d="M313.809 53.0641C313.809 53.864 313.157 54.5094 312.363 54.5094C311.563 54.5094 310.918 53.8573 310.918 53.0641C310.918 52.2642 311.57 51.6189 312.363 51.6189C313.157 51.6121 313.809 52.2642 313.809 53.0641Z" fill="#247C44"/>
<path d="M313.809 39.4519C313.809 40.2518 313.157 40.8972 312.363 40.8972C311.563 40.8972 310.918 40.2451 310.918 39.4519C310.918 38.652 311.57 38.0067 312.363 38.0067C313.157 37.9999 313.809 38.652 313.809 39.4519Z" fill="#247C44"/>
<path d="M326.22 66.6763C326.22 67.4763 325.568 68.1216 324.775 68.1216C323.975 68.1216 323.329 67.4696 323.329 66.6763C323.329 65.8831 323.982 65.2311 324.775 65.2311C325.575 65.2311 326.22 65.8764 326.22 66.6763Z" fill="#247C44"/>
<path d="M326.22 53.0641C326.22 53.864 325.568 54.5093 324.775 54.5093C323.975 54.5093 323.329 53.8573 323.329 53.0641C323.329 52.2642 323.982 51.6189 324.775 51.6189C325.575 51.6121 326.22 52.2642 326.22 53.0641Z" fill="#247C44"/>
<path d="M338.639 66.6763C338.639 65.8782 337.992 65.2311 337.193 65.2311C336.395 65.2311 335.748 65.8782 335.748 66.6763C335.748 67.4745 336.395 68.1216 337.193 68.1216C337.992 68.1216 338.639 67.4745 338.639 66.6763Z" fill="#247C44"/>
<path d="M220.217 502.92C220.217 503.632 219.639 504.217 218.919 504.217C218.206 504.217 217.621 503.639 217.621 502.92C217.621 502.201 218.2 501.622 218.919 501.622C219.639 501.622 220.217 502.201 220.217 502.92Z" fill="#247C44"/>
<path d="M220.217 490.726C220.217 491.438 219.639 492.023 218.919 492.023C218.207 492.023 217.622 491.445 217.622 490.726C217.622 490.007 218.2 489.428 218.919 489.428C219.639 489.428 220.217 490.013 220.217 490.726Z" fill="#247C44"/>
<path d="M220.217 478.539C220.217 479.251 219.639 479.836 218.919 479.836C218.207 479.836 217.622 479.258 217.622 478.539C217.622 477.826 218.2 477.241 218.919 477.241C219.639 477.241 220.217 477.819 220.217 478.539Z" fill="#247C44"/>
<path d="M220.217 466.345C220.217 467.057 219.639 467.642 218.919 467.642C218.207 467.642 217.622 467.064 217.622 466.345C217.622 465.632 218.2 465.047 218.919 465.047C219.639 465.047 220.217 465.632 220.217 466.345Z" fill="#247C44"/>
<path d="M220.217 454.151C220.217 454.863 219.639 455.448 218.919 455.448C218.207 455.448 217.622 454.87 217.622 454.151C217.622 453.438 218.2 452.854 218.919 452.854C219.639 452.86 220.217 453.438 220.217 454.151Z" fill="#247C44"/>
<path d="M220.217 441.964C220.217 442.676 219.639 443.261 218.919 443.261C218.207 443.261 217.622 442.683 217.622 441.964C217.622 441.251 218.2 440.666 218.919 440.666C219.639 440.666 220.217 441.251 220.217 441.964Z" fill="#247C44"/>
<path d="M220.217 429.77C220.217 430.483 219.639 431.067 218.919 431.067C218.207 431.067 217.622 430.489 217.622 429.77C217.622 429.057 218.2 428.473 218.919 428.473C219.639 428.479 220.217 429.057 220.217 429.77Z" fill="#247C44"/>
<path d="M220.217 417.583C220.217 418.295 219.639 418.88 218.919 418.88C218.207 418.88 217.622 418.302 217.622 417.583C217.622 416.87 218.2 416.285 218.919 416.285C219.639 416.285 220.217 416.864 220.217 417.583Z" fill="#247C44"/>
<path d="M339.863 258.068C339.863 258.78 339.284 259.365 338.565 259.365C337.852 259.365 337.267 258.787 337.267 258.068C337.267 257.355 337.845 256.77 338.565 256.77C339.284 256.77 339.863 257.348 339.863 258.068Z" fill="#247C44"/>
<path d="M339.863 282.523C339.863 283.235 339.284 283.82 338.565 283.82C337.852 283.82 337.267 283.242 337.267 282.523C337.267 281.803 337.845 281.225 338.565 281.225C339.284 281.225 339.863 281.81 339.863 282.523Z" fill="#247C44"/>
<path d="M339.863 245.874C339.863 246.586 339.284 247.171 338.565 247.171C337.852 247.171 337.267 246.593 337.267 245.874C337.267 245.161 337.845 244.576 338.565 244.576C339.284 244.576 339.863 245.161 339.863 245.874Z" fill="#247C44"/>
<path d="M339.863 233.68C339.863 234.392 339.284 234.977 338.565 234.977C337.852 234.977 337.267 234.399 337.267 233.68C337.267 232.967 337.845 232.383 338.565 232.383C339.284 232.389 339.863 232.967 339.863 233.68Z" fill="#247C44"/>
<path d="M339.863 221.493C339.863 222.205 339.284 222.79 338.565 222.79C337.852 222.79 337.267 222.212 337.267 221.493C337.267 220.78 337.845 220.195 338.565 220.195C339.284 220.195 339.863 220.78 339.863 221.493Z" fill="#247C44"/>
<path d="M339.863 184.918C339.863 185.631 339.284 186.215 338.565 186.215C337.852 186.215 337.267 185.637 337.267 184.918C337.267 184.205 337.845 183.621 338.565 183.621C339.284 183.621 339.863 184.205 339.863 184.918Z" fill="#247C44"/>
<path d="M70.7319 92.9194C70.7319 93.6319 70.1537 94.2168 69.4342 94.2168C68.7215 94.2168 68.1366 93.6387 68.1366 92.9194C68.1366 92.2001 68.7148 91.622 69.4342 91.622C70.1469 91.622 70.7319 92.2069 70.7319 92.9194Z" fill="#247C44"/>
<path d="M70.7319 80.7255C70.7319 81.438 70.1537 82.0229 69.4342 82.0229C68.7215 82.0229 68.1366 81.4448 68.1366 80.7255C68.1366 80.013 68.7148 79.4281 69.4342 79.4281C70.1469 79.4349 70.7319 80.013 70.7319 80.7255Z" fill="#247C44"/>
<path d="M70.7319 68.5384C70.7319 69.2509 70.1537 69.8357 69.4342 69.8357C68.7215 69.8357 68.1366 69.2576 68.1366 68.5384C68.1366 67.8258 68.7148 67.241 69.4342 67.241C70.1469 67.241 70.7319 67.8191 70.7319 68.5384Z" fill="#247C44"/>
<path d="M70.7319 56.3445C70.7319 57.057 70.1537 57.6419 69.4342 57.6419C68.7215 57.6419 68.1366 57.0637 68.1366 56.3445C68.1366 55.6319 68.7148 55.0471 69.4342 55.0471C70.1469 55.0471 70.7319 55.6319 70.7319 56.3445Z" fill="#247C44"/>
<path d="M70.7319 44.1573C70.7319 44.8699 70.1537 45.4547 69.4342 45.4547C68.7215 45.4547 68.1366 44.8766 68.1366 44.1573C68.1366 43.4448 68.7148 42.86 69.4342 42.86C70.1469 42.86 70.7319 43.4381 70.7319 44.1573Z" fill="#247C44"/>
<path d="M70.7319 31.9635C70.7319 32.676 70.1537 33.2608 69.4342 33.2608C68.7215 33.2608 68.1366 32.6827 68.1366 31.9635C68.1366 31.2442 68.7148 30.6661 69.4342 30.6661C70.1469 30.6661 70.7319 31.2509 70.7319 31.9635Z" fill="#247C44"/>
<path d="M81.8526 92.9194C81.8526 93.6319 81.2744 94.2167 80.555 94.2167C79.8423 94.2167 79.2573 93.6386 79.2573 92.9194C79.2573 92.2001 79.8356 91.622 80.555 91.622C81.2677 91.622 81.8526 92.2068 81.8526 92.9194Z" fill="#247C44"/>
<path d="M81.8526 80.7255C81.8526 81.438 81.2744 82.0228 80.555 82.0228C79.8423 82.0229 79.2573 81.4448 79.2573 80.7255C79.2573 80.013 79.8356 79.4281 80.555 79.4281C81.2677 79.4349 81.8526 80.013 81.8526 80.7255Z" fill="#247C44"/>
<path d="M81.8526 68.5383C81.8526 69.2509 81.2744 69.8357 80.555 69.8357C79.8423 69.8357 79.2573 69.2576 79.2573 68.5383C79.2573 67.8258 79.8356 67.241 80.555 67.241C81.2677 67.241 81.8526 67.8191 81.8526 68.5383Z" fill="#247C44"/>
<path d="M81.8526 56.3445C81.8526 57.057 81.2744 57.6419 80.555 57.6419C79.8423 57.6419 79.2573 57.0637 79.2573 56.3445C79.2573 55.6319 79.8356 55.0471 80.555 55.0471C81.2677 55.0471 81.8526 55.6319 81.8526 56.3445Z" fill="#247C44"/>
<path d="M81.8526 44.1573C81.8526 44.8698 81.2744 45.4547 80.555 45.4547C79.8423 45.4547 79.2573 44.8766 79.2573 44.1573C79.2573 43.4448 79.8356 42.8599 80.555 42.8599C81.2677 42.8599 81.8526 43.438 81.8526 44.1573Z" fill="#247C44"/>
<path d="M81.8526 31.9635C81.8526 32.676 81.2744 33.2608 80.555 33.2608C79.8423 33.2608 79.2573 32.6827 79.2573 31.9635C79.2573 31.2442 79.8356 30.6661 80.555 30.6661C81.2677 30.6661 81.8526 31.2509 81.8526 31.9635Z" fill="#247C44"/>
<path d="M92.9665 92.9194C92.9665 93.6319 92.3883 94.2167 91.6689 94.2167C90.9562 94.2167 90.3712 93.6386 90.3712 92.9194C90.3712 92.2001 90.9494 91.622 91.6689 91.622C92.3883 91.622 92.9665 92.2068 92.9665 92.9194Z" fill="#247C44"/>
<path d="M92.9665 80.7255C92.9665 81.438 92.3883 82.0228 91.6689 82.0228C90.9562 82.0228 90.3712 81.4447 90.3712 80.7255C90.3712 80.0129 90.9494 79.4281 91.6689 79.4281C92.3883 79.4348 92.9665 80.0129 92.9665 80.7255Z" fill="#247C44"/>
<path d="M92.9665 68.5383C92.9665 69.2509 92.3883 69.8357 91.6689 69.8357C90.9562 69.8357 90.3712 69.2576 90.3712 68.5383C90.3712 67.8258 90.9494 67.241 91.6689 67.241C92.3883 67.241 92.9665 67.8191 92.9665 68.5383Z" fill="#247C44"/>
<path d="M92.9665 56.3444C92.9665 57.057 92.3883 57.6418 91.6689 57.6418C90.9562 57.6418 90.3712 57.0637 90.3712 56.3444C90.3712 55.6319 90.9494 55.0471 91.6689 55.0471C92.3883 55.0471 92.9665 55.6319 92.9665 56.3444Z" fill="#247C44"/>
<path d="M92.9665 44.1573C92.9665 44.8698 92.3883 45.4547 91.6689 45.4547C90.9562 45.4547 90.3712 44.8766 90.3712 44.1573C90.3712 43.4447 90.9494 42.8599 91.6689 42.8599C92.3883 42.8599 92.9665 43.438 92.9665 44.1573Z" fill="#247C44"/>
<path d="M92.9665 31.9635C92.9665 32.676 92.3883 33.2608 91.6689 33.2608C90.9562 33.2608 90.3712 32.6827 90.3712 31.9635C90.3712 31.2442 90.9494 30.6661 91.6689 30.6661C92.3883 30.6661 92.9665 31.2509 92.9665 31.9635Z" fill="#247C44"/>
<path d="M104.087 92.9194C104.087 93.6319 103.509 94.2167 102.79 94.2167C102.077 94.2167 101.492 93.6386 101.492 92.9194C101.492 92.2001 102.07 91.622 102.79 91.622C103.503 91.622 104.087 92.2068 104.087 92.9194Z" fill="#247C44"/>
<path d="M104.087 80.7255C104.087 81.438 103.509 82.0228 102.79 82.0228C102.077 82.0229 101.492 81.4448 101.492 80.7255C101.492 80.013 102.07 79.4281 102.79 79.4281C103.503 79.4349 104.087 80.013 104.087 80.7255Z" fill="#247C44"/>
<path d="M104.087 68.5383C104.087 69.2509 103.509 69.8357 102.79 69.8357C102.077 69.8357 101.492 69.2576 101.492 68.5383C101.492 67.8258 102.07 67.241 102.79 67.241C103.503 67.241 104.087 67.8191 104.087 68.5383Z" fill="#247C44"/>
<path d="M104.087 56.3445C104.087 57.057 103.509 57.6419 102.79 57.6419C102.077 57.6419 101.492 57.0637 101.492 56.3445C101.492 55.6319 102.07 55.0471 102.79 55.0471C103.503 55.0471 104.087 55.6319 104.087 56.3445Z" fill="#247C44"/>
<path d="M104.087 44.1573C104.087 44.8699 103.509 45.4547 102.79 45.4547C102.077 45.4547 101.492 44.8766 101.492 44.1573C101.492 43.4448 102.07 42.86 102.79 42.86C103.503 42.86 104.087 43.438 104.087 44.1573Z" fill="#247C44"/>
<path d="M104.087 31.9635C104.087 32.676 103.509 33.2608 102.79 33.2608C102.077 33.2608 101.492 32.6827 101.492 31.9635C101.492 31.2442 102.07 30.6661 102.79 30.6661C103.503 30.6661 104.087 31.2509 104.087 31.9635Z" fill="#247C44"/>
<path d="M115.208 92.9194C115.208 93.6319 114.63 94.2167 113.911 94.2167C113.198 94.2167 112.613 93.6386 112.613 92.9194C112.613 92.2001 113.191 91.622 113.911 91.622C114.623 91.622 115.208 92.2068 115.208 92.9194Z" fill="#247C44"/>
<path d="M115.208 80.7255C115.208 81.438 114.63 82.0228 113.911 82.0228C113.198 82.0228 112.613 81.4447 112.613 80.7255C112.613 80.0129 113.191 79.4281 113.911 79.4281C114.623 79.4348 115.208 80.0129 115.208 80.7255Z" fill="#247C44"/>
<path d="M115.208 68.5383C115.208 69.2509 114.63 69.8357 113.911 69.8357C113.198 69.8357 112.613 69.2576 112.613 68.5383C112.613 67.8258 113.191 67.241 113.911 67.241C114.623 67.241 115.208 67.8191 115.208 68.5383Z" fill="#247C44"/>
<path d="M115.208 56.3444C115.208 57.057 114.63 57.6418 113.911 57.6418C113.198 57.6418 112.613 57.0637 112.613 56.3444C112.613 55.6319 113.191 55.0471 113.911 55.0471C114.623 55.0471 115.208 55.6319 115.208 56.3444Z" fill="#247C44"/>
<path d="M115.208 44.1573C115.208 44.8698 114.63 45.4547 113.911 45.4547C113.198 45.4547 112.613 44.8766 112.613 44.1573C112.613 43.4448 113.191 42.8599 113.911 42.8599C114.623 42.8599 115.208 43.438 115.208 44.1573Z" fill="#247C44"/>
<path d="M115.208 31.9635C115.208 32.676 114.63 33.2608 113.911 33.2608C113.198 33.2608 112.613 32.6827 112.613 31.9635C112.613 31.2442 113.191 30.6661 113.911 30.6661C114.623 30.6661 115.208 31.2509 115.208 31.9635Z" fill="#247C44"/>
<path d="M126.322 92.9194C126.322 93.6319 125.744 94.2167 125.024 94.2167C124.312 94.2167 123.727 93.6386 123.727 92.9194C123.727 92.2001 124.305 91.622 125.024 91.622C125.744 91.622 126.322 92.2068 126.322 92.9194Z" fill="#247C44"/>
<path d="M126.322 80.7255C126.322 81.438 125.744 82.0228 125.025 82.0228C124.312 82.0228 123.727 81.4447 123.727 80.7255C123.727 80.0129 124.305 79.4281 125.025 79.4281C125.744 79.4348 126.322 80.0129 126.322 80.7255Z" fill="#247C44"/>
<path d="M126.322 68.5383C126.322 69.2509 125.744 69.8357 125.025 69.8357C124.312 69.8357 123.727 69.2576 123.727 68.5383C123.727 67.8258 124.305 67.241 125.025 67.241C125.744 67.241 126.322 67.8191 126.322 68.5383Z" fill="#247C44"/>
<path d="M126.322 56.3444C126.322 57.057 125.744 57.6418 125.025 57.6418C124.312 57.6418 123.727 57.0637 123.727 56.3444C123.727 55.6319 124.305 55.0471 125.025 55.0471C125.744 55.0471 126.322 55.6319 126.322 56.3444Z" fill="#247C44"/>
<path d="M126.322 44.1573C126.322 44.8698 125.744 45.4547 125.025 45.4547C124.312 45.4547 123.727 44.8766 123.727 44.1573C123.727 43.4448 124.305 42.8599 125.025 42.8599C125.744 42.8599 126.322 43.438 126.322 44.1573Z" fill="#247C44"/>
<path d="M126.322 31.9635C126.322 32.676 125.744 33.2608 125.025 33.2608C124.312 33.2608 123.727 32.6827 123.727 31.9635C123.727 31.2442 124.305 30.6661 125.025 30.6661C125.744 30.6661 126.322 31.2509 126.322 31.9635Z" fill="#247C44"/>
<path d="M135.043 41.5694L77.8589 98.7407L77.8589 41.5694L135.043 41.5694Z" fill="#867B35"/>
<path d="M34.8347 473.638C34.8347 474.391 35.3793 474.936 36.1256 474.936C36.8787 474.936 37.4233 474.391 37.4233 473.645C37.4233 472.892 36.8787 472.355 36.1324 472.348C35.3793 472.348 34.8347 472.886 34.8347 473.638Z" fill="#247C44"/>
<path d="M34.8348 460.692C34.8214 461.444 35.3526 462.009 36.0989 462.023C36.8519 462.036 37.4167 461.498 37.4301 460.759C37.4436 460.006 36.9124 459.448 36.1661 459.435C35.4063 459.414 34.8483 459.945 34.8348 460.692Z" fill="#247C44"/>
<path d="M34.8347 447.792C34.8279 448.545 35.3725 449.096 36.1189 449.103C36.8719 449.11 37.4232 448.565 37.4299 447.819C37.4367 447.066 36.8988 446.522 36.1457 446.515C35.386 446.508 34.8414 447.039 34.8347 447.792Z" fill="#247C44"/>
<path d="M43.8913 505.945C43.8913 505.192 43.3534 504.647 42.6004 504.647C41.8473 504.647 41.3027 505.185 41.3027 505.938C41.3027 506.691 41.8473 507.235 42.5937 507.235C43.34 507.242 43.8846 506.691 43.8913 505.945Z" fill="#247C44"/>
<path d="M43.8914 493.045C43.8981 492.292 43.3669 491.741 42.6139 491.728C41.8541 491.721 41.3028 492.252 41.2961 492.998C41.2894 493.751 41.8205 494.309 42.5668 494.316C43.3199 494.329 43.8779 493.785 43.8914 493.045Z" fill="#247C44"/>
<path d="M41.2961 480.118C41.3028 480.865 41.8541 481.409 42.6072 481.402C43.3535 481.396 43.8981 480.838 43.8914 480.092C43.8847 479.339 43.3333 478.808 42.5803 478.814C41.8272 478.814 41.2894 479.366 41.2961 480.118Z" fill="#247C44"/>
<path d="M41.2961 467.131C41.2759 467.884 41.8004 468.456 42.54 468.483C43.293 468.503 43.8645 467.978 43.8914 467.239C43.9116 466.486 43.3871 465.915 42.6475 465.894C41.881 465.868 41.3163 466.385 41.2961 467.131Z" fill="#247C44"/>
<path d="M41.2961 454.238C41.2894 454.991 41.8272 455.549 42.5668 455.556C43.3199 455.563 43.8779 455.025 43.8847 454.279C43.8914 453.526 43.3535 452.975 42.6072 452.968C41.8541 452.961 41.3028 453.492 41.2961 454.238Z" fill="#247C44"/>
<path d="M50.3527 499.478C50.346 498.725 49.8014 498.187 49.0484 498.194C48.2953 498.194 47.7574 498.739 47.7574 499.491C47.7574 500.244 48.3088 500.782 49.0618 500.782C49.8081 500.775 50.3527 500.224 50.3527 499.478Z" fill="#247C44"/>
<path d="M48.9609 487.856C49.7207 487.896 50.3056 487.385 50.3527 486.652C50.393 485.899 49.882 485.308 49.1492 485.268C48.3894 485.227 47.8045 485.731 47.7641 486.464C47.717 487.23 48.228 487.815 48.9609 487.856Z" fill="#247C44"/>
<path d="M47.7575 473.591C47.7374 474.344 48.2551 474.915 49.0014 474.936C49.7544 474.956 50.3259 474.431 50.3528 473.692C50.373 472.939 49.8486 472.368 49.109 472.348C48.3425 472.327 47.7777 472.845 47.7575 473.591Z" fill="#247C44"/>
<path d="M47.7575 460.745C47.7642 461.492 48.3223 462.029 49.0753 462.016C49.8216 462.009 50.3595 461.451 50.3528 460.698C50.3394 459.952 49.788 459.421 49.035 459.428C48.2819 459.441 47.7508 459.992 47.7575 460.745Z" fill="#247C44"/>
<path d="M56.814 493.025C56.814 492.272 56.2762 491.734 55.5231 491.728C54.7701 491.728 54.2255 492.265 54.2255 493.018C54.2255 493.771 54.7701 494.316 55.5164 494.316C56.2627 494.316 56.814 493.771 56.814 493.025Z" fill="#247C44"/>
<path d="M54.2186 480.132C54.2321 480.878 54.7901 481.416 55.5432 481.402C56.2895 481.389 56.8274 480.831 56.8139 480.078C56.8005 479.332 56.2491 478.801 55.4894 478.814C54.7363 478.821 54.2052 479.372 54.2186 480.132Z" fill="#247C44"/>
<path d="M54.2187 467.158C54.212 467.911 54.7499 468.469 55.4894 468.476C56.2425 468.482 56.8005 467.945 56.8073 467.199C56.814 466.446 56.2828 465.894 55.5298 465.888C54.7767 465.881 54.2254 466.412 54.2187 467.158Z" fill="#247C44"/>
<path d="M63.2754 486.612C63.2956 485.859 62.7711 485.288 62.0316 485.268C61.2718 485.247 60.707 485.765 60.6868 486.505C60.6667 487.257 61.1911 487.829 61.9307 487.856C62.677 487.883 63.2485 487.351 63.2754 486.612Z" fill="#247C44"/>
<path d="M60.6801 473.611C60.6666 474.364 61.1978 474.929 61.9441 474.942C62.6971 474.956 63.2619 474.418 63.2754 473.679C63.2888 472.926 62.7576 472.368 62.0113 472.354C61.2516 472.334 60.6935 472.865 60.6801 473.611Z" fill="#247C44"/>
<path d="M67.1415 480.125C67.1549 480.871 67.7063 481.409 68.4593 481.396C69.2056 481.382 69.7435 480.824 69.7301 480.078C69.7166 479.332 69.1653 478.801 68.4122 478.808C67.6659 478.821 67.128 479.372 67.1415 480.125Z" fill="#247C44"/>
<path d="M18.046 493.018C18.046 492.265 17.5014 491.728 16.7416 491.728C15.9886 491.728 15.4507 492.272 15.4507 493.025C15.4507 493.778 16.002 494.322 16.7483 494.316C17.5014 494.316 18.046 493.764 18.046 493.018Z" fill="#247C44"/>
<path d="M16.8356 478.814C16.0759 478.774 15.4909 479.278 15.4506 480.011C15.4103 480.771 15.9212 481.355 16.6541 481.396C17.4072 481.436 17.9988 480.925 18.0392 480.192C18.0862 479.44 17.5685 478.848 16.8356 478.814Z" fill="#247C44"/>
<path d="M15.4507 467.158C15.444 467.911 15.9819 468.469 16.7215 468.476C17.4745 468.482 18.0326 467.945 18.0393 467.199C18.046 466.446 17.5149 465.894 16.7618 465.888C16.0088 465.881 15.4642 466.412 15.4507 467.158Z" fill="#247C44"/>
<path d="M24.5073 499.458C24.4938 498.712 23.9425 498.181 23.1895 498.187C22.4431 498.194 21.9053 498.745 21.9187 499.505C21.9322 500.251 22.4835 500.789 23.2365 500.775C23.9761 500.769 24.514 500.211 24.5073 499.458Z" fill="#247C44"/>
<path d="M21.9121 486.538C21.9053 487.291 22.4365 487.842 23.1828 487.856C23.9358 487.862 24.4939 487.331 24.5006 486.585C24.5073 485.832 23.9762 485.281 23.2231 485.268C22.4768 485.261 21.9255 485.792 21.9121 486.538Z" fill="#247C44"/>
<path d="M21.912 473.632C21.9053 474.385 22.4432 474.936 23.1962 474.936C23.9493 474.942 24.5006 474.398 24.5073 473.652C24.5141 472.899 23.9695 472.354 23.2231 472.348C22.4634 472.348 21.9188 472.879 21.912 473.632Z" fill="#247C44"/>
<path d="M21.9121 460.725C21.9121 461.478 22.4567 462.016 23.2098 462.016C23.9628 462.016 24.5074 461.465 24.5007 460.719C24.5007 459.966 23.9561 459.428 23.1963 459.428C22.45 459.435 21.9121 459.972 21.9121 460.725Z" fill="#247C44"/>
<path d="M30.9685 505.958C30.9752 505.205 30.4374 504.661 29.6843 504.654C28.9313 504.647 28.38 505.185 28.3732 505.931C28.3665 506.684 28.9111 507.235 29.6574 507.242C30.4037 507.242 30.9618 506.698 30.9685 505.958Z" fill="#247C44"/>
<path d="M30.9685 493.038C30.9752 492.285 30.4374 491.741 29.6843 491.734C28.9313 491.728 28.38 492.265 28.3732 493.011C28.3665 493.764 28.9111 494.316 29.6574 494.322C30.4037 494.322 30.9618 493.778 30.9685 493.038Z" fill="#247C44"/>
<path d="M28.3734 480.051C28.3532 480.804 28.8776 481.375 29.6172 481.402C30.3703 481.423 30.9418 480.898 30.9687 480.159C30.9956 479.406 30.4644 478.835 29.7248 478.814C28.9583 478.787 28.4003 479.305 28.3734 480.051Z" fill="#247C44"/>
<path d="M28.3734 467.178C28.3734 467.931 28.918 468.476 29.6643 468.476C30.4174 468.476 30.962 467.931 30.9687 467.185C30.9687 466.432 30.4308 465.888 29.6778 465.888C28.918 465.888 28.3734 466.426 28.3734 467.178Z" fill="#247C44"/>
<path d="M28.3732 454.252C28.3665 455.005 28.9111 455.556 29.6574 455.563C30.4105 455.569 30.9618 455.025 30.9685 454.279C30.9752 453.526 30.4306 452.981 29.6843 452.975C28.9246 452.968 28.38 453.499 28.3732 454.252Z" fill="#247C44"/>
<path d="M37.4301 512.411C37.4368 511.659 36.8922 511.114 36.1459 511.107C35.3928 511.101 34.8415 511.638 34.8415 512.385C34.8348 513.137 35.3794 513.689 36.1257 513.695C36.8653 513.702 37.4233 513.158 37.4301 512.411Z" fill="#247C44"/>
<path d="M37.4301 499.532C37.457 498.779 36.9258 498.208 36.1862 498.187C35.4265 498.167 34.8617 498.685 34.8348 499.424C34.8146 500.177 35.3391 500.749 36.0786 500.775C36.8317 500.802 37.4032 500.271 37.4301 499.532Z" fill="#247C44"/>
<path d="M34.8347 486.545C34.8279 487.298 35.3658 487.856 36.1121 487.862C36.8652 487.869 37.4232 487.331 37.4299 486.585C37.4367 485.832 36.8988 485.281 36.1525 485.274C35.3927 485.261 34.8414 485.792 34.8347 486.545Z" fill="#247C44"/>
<path d="M269.547 415.291L236.622 415.291L236.622 448.209L269.547 448.209L302.473 448.209L302.473 415.291L302.473 382.373L269.547 382.373L269.547 415.291Z" fill="#867B35"/>
<path d="M316.599 395.151L316.599 462.332L249.404 462.332L249.404 428.069L282.329 428.069L282.329 395.151L316.599 395.151ZM315.254 460.987L315.254 396.496L283.674 396.496L283.674 429.414L250.748 429.414L250.748 460.987L315.254 460.987Z" fill="#247C44"/>
<path d="M236.979 408.4L236.979 410.404L265.554 410.404L265.554 408.4L236.979 408.4Z" fill="#992D3B"/>
<path d="M236.972 403.298L236.972 405.302L265.547 405.302L265.547 403.298L236.972 403.298Z" fill="#992D3B"/>
<path d="M236.979 398.203L236.979 400.206L265.554 400.206L265.554 398.203L236.979 398.203Z" fill="#992D3B"/>
<path d="M236.979 393.108L236.979 395.111L265.554 395.111L265.554 393.108L236.979 393.108Z" fill="#992D3B"/>
<path d="M236.972 388.012L236.972 390.016L265.547 390.016L265.547 388.012L236.972 388.012Z" fill="#992D3B"/>
<path d="M236.979 382.977L236.979 384.92L265.554 384.92L265.554 382.977L236.979 382.977Z" fill="#992D3B"/>
<path d="M126.336 462.701L126.336 527.899L176.46 527.899L176.46 462.701C176.446 455.798 173.649 449.553 169.118 445.022C164.586 440.485 158.32 437.682 151.401 437.682C137.571 437.682 126.356 448.881 126.336 462.701Z" fill="#867B35"/>
<path d="M151.401 437.682C158.32 437.682 164.586 440.485 169.118 445.022C173.649 449.553 176.446 455.798 176.46 462.701L176.46 462.742C176.44 476.562 165.225 487.755 151.401 487.755C137.571 487.755 126.356 476.562 126.336 462.742L126.336 462.701C126.356 448.881 137.571 437.682 151.401 437.682Z" fill="#867B35"/>
<path d="M177.132 462.701C177.112 476.905 165.568 488.427 151.401 488.427C137.228 488.427 125.684 476.905 125.663 462.742C125.683 448.531 137.228 437.01 151.401 437.01C158.279 437.01 164.741 439.685 169.595 444.545C174.443 449.392 177.119 455.838 177.132 462.701ZM127.008 462.701C127.028 476.159 137.967 487.082 151.401 487.082C164.828 487.082 175.767 476.166 175.788 462.742C175.774 456.201 173.239 450.091 168.64 445.5C164.041 440.895 157.916 438.354 151.401 438.354C137.974 438.354 127.028 449.277 127.008 462.701Z" fill="#247C44"/>
<path d="M237.563 496.117L237.563 527.899L244.267 527.899L244.267 496.117L237.563 496.117Z" fill="#992D3B"/>
<path d="M252.134 496.117L252.134 527.899L258.837 527.899L258.837 496.117L252.134 496.117Z" fill="#867B35"/>
<path d="M265.836 510.865L265.836 527.899L272.539 527.899L272.539 510.865L265.836 510.865Z" fill="#247C44"/>
<path d="M95.2594 125.703L95.2594 127.975L106.71 127.975L106.71 125.703L95.2594 125.703Z" fill="#247C44"/>
<path d="M95.2594 113.22L95.2594 115.492L106.71 115.492L106.71 113.22L95.2594 113.22Z" fill="#247C44"/>
<path d="M95.8981 515.447L98.1707 515.447L98.1707 504L95.8981 504L95.8981 515.447Z" fill="#247C44"/>
<path d="M83.411 515.452L85.6836 515.452L85.6836 504.005L83.411 504.005L83.411 515.452Z" fill="#992D3B"/>
<path d="M70.9182 515.452L73.1908 515.452L73.1908 504.004L70.9182 504.004L70.9182 515.452Z" fill="#867B35"/>
<path d="M54.36 183.93C54.36 207.417 73.4011 226.454 96.8932 226.454C120.385 226.454 139.426 207.417 139.426 183.93C139.426 160.443 120.385 141.406 96.8932 141.406C73.4011 141.406 54.36 160.443 54.36 183.93ZM122.725 183.93C122.725 198.194 111.161 209.756 96.8932 209.756C82.6258 209.756 71.0613 198.194 71.0613 183.93C71.0613 169.665 82.6258 158.103 96.8932 158.103C111.161 158.103 122.725 169.665 122.725 183.93Z" fill="#992D3B"/>
<path d="M323.296 170.163C323.296 198.154 312.39 224.471 292.596 244.267L291.648 243.319C331.996 202.98 331.996 137.352 291.648 97.013C272.102 77.4719 246.116 66.7099 218.482 66.7099C190.848 66.7099 164.855 77.4719 145.316 97.013L144.368 96.0652C164.169 76.2687 190.492 65.3722 218.489 65.3722C246.486 65.3722 272.808 76.2754 292.609 96.0652C312.397 115.855 323.296 142.172 323.296 170.163Z" fill="#247C44"/>
<path d="M316.041 170.163C316.041 195.156 306.527 220.142 287.499 239.165L286.551 238.217C324.082 200.695 324.082 139.638 286.551 102.108C249.021 64.5857 187.944 64.5857 150.413 102.108L149.465 101.161C187.52 63.1135 249.444 63.1135 287.506 101.161C306.527 120.184 316.041 145.177 316.041 170.163Z" fill="#247C44"/>
<path d="M308.874 170.163C308.874 194.302 299.467 216.996 282.396 234.07L281.448 233.122C298.271 216.303 307.529 193.946 307.529 170.169C307.529 146.387 298.264 124.029 281.448 107.217C264.626 90.3985 242.263 81.1421 218.482 81.1421C194.694 81.1421 172.332 90.4052 155.516 107.217L154.568 106.269C171.639 89.2019 194.344 79.7977 218.489 79.7977C242.633 79.7977 265.332 89.2019 282.41 106.269C299.467 123.33 308.874 146.024 308.874 170.163Z" fill="#247C44"/>
<path d="M301.619 170.163C301.619 191.458 293.51 212.754 277.293 228.968L276.345 228.02C308.255 196.117 308.255 144.209 276.345 112.306C244.435 80.4027 192.516 80.4027 160.606 112.306L159.658 111.358C192.092 78.9306 244.865 78.9306 277.293 111.358C293.51 127.572 301.619 148.867 301.619 170.163Z" fill="#247C44"/>
<path d="M294.411 170.163C294.411 189.61 287.009 209.064 272.197 223.872L271.249 222.925C300.348 193.831 300.348 146.501 271.248 117.415C242.149 88.3214 194.808 88.3214 165.715 117.415L164.767 116.467C194.385 86.856 242.586 86.856 272.203 116.467C287.009 131.262 294.411 150.716 294.411 170.163Z" fill="#247C44"/>
<path d="M287.204 170.163C287.204 187.768 280.5 205.373 267.1 218.77L266.152 217.822C292.435 191.546 292.435 148.787 266.152 122.51C253.418 109.778 236.488 102.767 218.482 102.767C200.477 102.767 183.547 109.778 170.812 122.51L169.864 121.562C182.847 108.575 200.12 101.429 218.482 101.429C236.844 101.429 254.117 108.582 267.1 121.562C280.5 134.959 287.204 152.558 287.204 170.163Z" fill="#247C44"/>
<path d="M279.996 170.163C279.996 185.919 273.999 201.676 261.997 213.675L261.049 212.727C284.521 189.26 284.521 151.079 261.049 127.612C237.577 104.145 199.387 104.145 175.915 127.612L174.967 126.664C198.964 102.673 238.007 102.673 262.004 126.664C273.992 138.65 279.996 154.406 279.996 170.163Z" fill="#247C44"/>
<path d="M139.547 128.351L143.42 132.23L139.547 132.23L139.547 128.351Z" fill="#247C44"/>
<path d="M139.547 121.172L150.608 132.23L146.735 132.23L139.547 125.044L139.547 121.172Z" fill="#247C44"/>
<path d="M139.547 99.675L172.103 132.23L168.291 132.23L139.547 103.493L139.547 99.675Z" fill="#247C44"/>
<path d="M139.547 106.8L164.976 132.23L161.103 132.23L139.547 110.672L139.547 106.8Z" fill="#247C44"/>
<path d="M139.547 113.986L157.795 132.23L153.916 132.23L139.547 117.858L139.547 113.986Z" fill="#247C44"/>
<path d="M81.0255 273.871C81.0255 272.943 80.2729 272.191 79.3446 272.191C78.4163 272.191 77.6637 272.943 77.6637 273.871C77.6637 274.799 78.4163 275.552 79.3446 275.552C80.2729 275.552 81.0255 274.799 81.0255 273.871Z" fill="#992D3B"/>
<path d="M82.4847 256.307C82.4847 257.214 81.7518 257.947 80.8442 257.947C79.9365 257.947 79.2036 257.214 79.2036 256.307C79.2036 255.399 79.9365 254.666 80.8442 254.666C81.7518 254.666 82.4847 255.399 82.4847 256.307Z" fill="#992D3B"/>
<path d="M86.9491 239.259C86.9491 238.376 86.2326 237.659 85.3489 237.659C84.4651 237.659 83.7487 238.376 83.7487 239.259C83.7487 240.143 84.4651 240.859 85.3489 240.859C86.2326 240.859 86.9491 240.143 86.9491 239.259Z" fill="#992D3B"/>
<path d="M94.2911 223.254C94.2911 224.114 93.5919 224.814 92.7312 224.814C91.8706 224.814 91.1714 224.114 91.1714 223.254C91.1714 222.394 91.8706 221.694 92.7312 221.694C93.5919 221.688 94.2911 222.387 94.2911 223.254Z" fill="#992D3B"/>
<path d="M104.269 208.748C104.269 209.588 103.59 210.267 102.75 210.267C101.909 210.267 101.23 209.588 101.23 208.748C101.23 207.908 101.909 207.229 102.75 207.229C103.59 207.229 104.269 207.908 104.269 208.748Z" fill="#992D3B"/>
<path d="M116.587 196.171C116.587 195.35 115.921 194.685 115.101 194.685C114.28 194.685 113.615 195.35 113.615 196.171C113.615 196.991 114.28 197.656 115.101 197.656C115.921 197.656 116.587 196.991 116.587 196.171Z" fill="#992D3B"/>
<path d="M130.867 185.893C130.867 186.693 130.222 187.338 129.422 187.338C128.622 187.338 127.976 186.693 127.976 185.893C127.976 185.093 128.622 184.447 129.422 184.447C130.222 184.447 130.867 185.093 130.867 185.893Z" fill="#992D3B"/>
<path d="M145.542 176.826C144.776 176.702 144.055 177.223 143.931 177.989C143.807 178.755 144.328 179.476 145.094 179.6C145.861 179.723 146.582 179.203 146.706 178.437C146.829 177.671 146.308 176.949 145.542 176.826Z" fill="#992D3B"/>
<path d="M163.624 173.41C163.624 174.163 163.013 174.774 162.26 174.774C161.506 174.774 160.895 174.163 160.895 173.41C160.895 172.657 161.506 172.045 162.26 172.045C163.013 172.045 163.624 172.657 163.624 173.41Z" fill="#992D3B"/>
<path d="M181.119 171.588C181.119 172.321 180.528 172.912 179.795 172.912C179.062 172.912 178.47 172.321 178.47 171.588C178.47 170.855 179.062 170.264 179.795 170.264C180.528 170.264 181.119 170.855 181.119 171.588Z" fill="#992D3B"/>
<path d="M198.675 172.771C198.675 173.484 198.096 174.055 197.39 174.055C196.678 174.055 196.106 173.477 196.106 172.771C196.106 172.059 196.684 171.487 197.39 171.487C198.096 171.487 198.675 172.065 198.675 172.771Z" fill="#992D3B"/>
<path d="M215.759 176.959C215.759 177.645 215.201 178.203 214.515 178.203C213.83 178.203 213.271 177.645 213.271 176.959C213.271 176.273 213.83 175.715 214.515 175.715C215.201 175.715 215.759 176.273 215.759 176.959Z" fill="#992D3B"/>
<path d="M231.869 184.044C231.869 184.71 231.331 185.247 230.665 185.247C230 185.247 229.462 184.71 229.462 184.044C229.462 183.379 230 182.841 230.665 182.841C231.324 182.841 231.869 183.379 231.869 184.044Z" fill="#992D3B"/>
<path d="M246.513 193.798C246.513 194.443 245.988 194.961 245.349 194.961C244.704 194.961 244.186 194.436 244.186 193.798C244.186 193.153 244.711 192.635 245.349 192.635C245.988 192.635 246.513 193.153 246.513 193.798Z" fill="#992D3B"/>
<path d="M259.274 205.918C259.274 206.543 258.77 207.047 258.144 207.047C257.519 207.047 257.015 206.543 257.015 205.918C257.015 205.293 257.519 204.788 258.144 204.788C258.77 204.795 259.274 205.299 259.274 205.918Z" fill="#992D3B"/>
<path d="M269.776 220.048C269.776 220.646 269.292 221.137 268.687 221.137C268.082 221.137 267.598 220.653 267.598 220.048C267.598 219.443 268.082 218.959 268.687 218.959C269.292 218.959 269.776 219.449 269.776 220.048Z" fill="#992D3B"/>
<path d="M277.697 235.777C277.697 236.355 277.226 236.826 276.648 236.826C276.069 236.826 275.599 236.355 275.599 235.777C275.599 235.199 276.069 234.729 276.648 234.729C277.226 234.729 277.697 235.199 277.697 235.777Z" fill="#992D3B"/>
<path d="M282.78 252.643C282.78 253.201 282.329 253.651 281.771 253.651C281.213 253.651 280.762 253.201 280.762 252.643C280.762 252.085 281.213 251.635 281.771 251.635C282.329 251.635 282.78 252.085 282.78 252.643Z" fill="#992D3B"/>
<path d="M284.884 270.141C284.884 270.678 284.454 271.109 283.916 271.109C283.378 271.109 282.948 270.678 282.948 270.141C282.948 269.603 283.378 269.173 283.916 269.173C284.454 269.173 284.884 269.603 284.884 270.141Z" fill="#992D3B"/>
<path d="M283.976 287.746C283.976 288.257 283.559 288.673 283.048 288.673C282.537 288.673 282.121 288.257 282.121 287.746C282.121 287.235 282.537 286.818 283.048 286.818C283.559 286.818 283.976 287.235 283.976 287.746Z" fill="#992D3B"/>
<path d="M280.063 304.941C280.063 305.432 279.666 305.828 279.176 305.828C278.685 305.828 278.288 305.432 278.288 304.941C278.288 304.45 278.685 304.054 279.176 304.054C279.666 304.054 280.063 304.45 280.063 304.941Z" fill="#992D3B"/>
<path d="M273.232 321.215C273.232 321.686 272.849 322.062 272.385 322.062C271.914 322.062 271.538 321.679 271.538 321.215C271.538 320.744 271.921 320.368 272.385 320.368C272.856 320.361 273.232 320.744 273.232 321.215Z" fill="#992D3B"/>
<path d="M263.705 336.071C263.705 336.521 263.342 336.877 262.898 336.877C262.454 336.877 262.091 336.514 262.091 336.071C262.091 335.627 262.454 335.264 262.898 335.264C263.342 335.264 263.705 335.62 263.705 336.071Z" fill="#992D3B"/>
<path d="M251.777 349.092C251.777 348.665 251.431 348.318 251.004 348.318C250.577 348.318 250.231 348.665 250.231 349.092C250.231 349.518 250.577 349.865 251.004 349.865C251.431 349.865 251.777 349.518 251.777 349.092Z" fill="#992D3B"/>
<path d="M88.8989 273.871C88.8989 272.943 88.1463 272.191 87.218 272.191C86.2897 272.191 85.5371 272.943 85.5371 273.871C85.5371 274.799 86.2897 275.552 87.218 275.552C88.1463 275.552 88.8989 274.799 88.8989 273.871Z" fill="#992D3B"/>
<path d="M90.4318 256.515C90.4318 257.409 89.7057 258.135 88.8114 258.135C87.9172 258.135 87.191 257.409 87.191 256.515C87.191 255.621 87.9172 254.895 88.8114 254.895C89.7057 254.895 90.4318 255.621 90.4318 256.515Z" fill="#992D3B"/>
<path d="M95.1247 239.75C95.1247 238.892 94.4294 238.197 93.5716 238.197C92.7138 238.197 92.0184 238.892 92.0184 239.75C92.0184 240.608 92.7138 241.303 93.5716 241.303C94.4294 241.303 95.1247 240.608 95.1247 239.75Z" fill="#992D3B"/>
<path d="M102.844 224.155C102.844 224.975 102.178 225.647 101.351 225.647C100.531 225.647 99.8583 224.982 99.8583 224.155C99.8583 223.335 100.524 222.662 101.351 222.662C102.178 222.669 102.844 223.335 102.844 224.155Z" fill="#992D3B"/>
<path d="M113.292 210.26C113.292 211.047 112.653 211.685 111.867 211.685C111.08 211.685 110.441 211.047 110.441 210.26C110.441 209.474 111.08 208.835 111.867 208.835C112.653 208.835 113.292 209.467 113.292 210.26Z" fill="#992D3B"/>
<path d="M126.107 198.517C126.107 199.27 125.495 199.881 124.742 199.881C123.989 199.881 123.377 199.27 123.377 198.517C123.377 197.764 123.989 197.152 124.742 197.152C125.495 197.152 126.107 197.764 126.107 198.517Z" fill="#992D3B"/>
<path d="M140.859 189.328C140.859 190.047 140.274 190.625 139.561 190.625C138.842 190.625 138.263 190.04 138.263 189.328C138.263 188.615 138.848 188.03 139.561 188.03C140.274 188.03 140.859 188.608 140.859 189.328Z" fill="#992D3B"/>
<path d="M157.042 183.029C157.042 182.346 156.488 181.792 155.805 181.792C155.122 181.792 154.568 182.346 154.568 183.029C154.568 183.712 155.122 184.266 155.805 184.266C156.488 184.266 157.042 183.712 157.042 183.029Z" fill="#992D3B"/>
<path d="M174.12 179.843C174.12 180.488 173.596 181.012 172.95 181.012C172.305 181.012 171.78 180.488 171.78 179.843C171.78 179.197 172.305 178.673 172.95 178.673C173.596 178.673 174.12 179.197 174.12 179.843Z" fill="#992D3B"/>
<path d="M191.487 179.843C191.487 180.454 190.989 180.952 190.378 180.952C189.766 180.952 189.268 180.454 189.268 179.843C189.268 179.231 189.766 178.734 190.378 178.734C190.989 178.734 191.487 179.231 191.487 179.843Z" fill="#992D3B"/>
<path d="M208.558 183.029C208.558 183.607 208.088 184.071 207.516 184.071C206.938 184.071 206.474 183.6 206.474 183.029C206.474 182.451 206.945 181.987 207.516 181.987C208.088 181.987 208.558 182.451 208.558 183.029Z" fill="#992D3B"/>
<path d="M224.748 189.328C224.748 189.872 224.311 190.309 223.767 190.309C223.222 190.309 222.785 189.872 222.785 189.328C222.785 188.783 223.222 188.346 223.767 188.346C224.305 188.346 224.748 188.783 224.748 189.328Z" fill="#992D3B"/>
<path d="M239.493 198.51C239.493 199.014 239.083 199.424 238.579 199.424C238.074 199.424 237.664 199.014 237.664 198.51C237.664 198.006 238.074 197.596 238.579 197.596C239.083 197.596 239.493 198.006 239.493 198.51Z" fill="#992D3B"/>
<path d="M252.308 210.253C252.308 210.724 251.925 211.107 251.454 211.107C250.984 211.107 250.601 210.724 250.601 210.253C250.601 209.783 250.984 209.4 251.454 209.4C251.925 209.406 252.308 209.783 252.308 210.253Z" fill="#992D3B"/>
<path d="M262.757 224.155C262.757 224.592 262.4 224.941 261.97 224.941C261.54 224.941 261.183 224.585 261.183 224.155C261.183 223.718 261.54 223.368 261.97 223.368C262.4 223.368 262.757 223.718 262.757 224.155Z" fill="#992D3B"/>
<path d="M270.475 239.75C270.475 240.153 270.153 240.476 269.749 240.476C269.346 240.476 269.023 240.153 269.023 239.75C269.023 239.347 269.346 239.024 269.749 239.024C270.153 239.024 270.475 239.347 270.475 239.75Z" fill="#992D3B"/>
<path d="M275.175 256.515C275.175 256.147 274.877 255.849 274.509 255.849C274.142 255.849 273.844 256.147 273.844 256.515C273.844 256.882 274.142 257.18 274.509 257.18C274.877 257.18 275.175 256.882 275.175 256.515Z" fill="#992D3B"/>
<path d="M276.701 273.871C276.701 273.541 276.434 273.273 276.103 273.273C275.773 273.273 275.505 273.541 275.505 273.871C275.505 274.202 275.773 274.47 276.103 274.47C276.434 274.47 276.701 274.202 276.701 273.871Z" fill="#992D3B"/>
<path d="M97.9757 273.871C97.9757 272.943 97.2231 272.191 96.2948 272.191C95.3665 272.191 94.6139 272.943 94.6139 273.871C94.6139 274.799 95.3665 275.552 96.2948 275.552C97.2231 275.552 97.9757 274.799 97.9757 273.871Z" fill="#992D3B"/>
<path d="M99.4481 257.214C99.4481 258.061 98.7623 258.74 97.9219 258.74C97.0747 258.74 96.3956 258.054 96.3956 257.214C96.3956 256.374 97.0814 255.688 97.9219 255.688C98.7623 255.681 99.4481 256.367 99.4481 257.214Z" fill="#992D3B"/>
<path d="M104.148 241.195C104.148 241.955 103.529 242.573 102.77 242.573C102.01 242.573 101.391 241.955 101.391 241.195C101.391 240.436 102.01 239.817 102.77 239.817C103.529 239.817 104.148 240.436 104.148 241.195Z" fill="#992D3B"/>
<path d="M111.893 226.447C111.893 225.771 111.346 225.224 110.67 225.224C109.994 225.224 109.446 225.771 109.446 226.447C109.446 227.123 109.994 227.67 110.67 227.67C111.346 227.67 111.893 227.123 111.893 226.447Z" fill="#992D3B"/>
<path d="M122.369 213.514C122.369 214.105 121.885 214.589 121.293 214.589C120.701 214.589 120.217 214.105 120.217 213.514C120.217 212.922 120.701 212.438 121.293 212.438C121.885 212.438 122.369 212.922 122.369 213.514Z" fill="#992D3B"/>
<path d="M135.15 202.893C135.15 203.404 134.74 203.814 134.229 203.814C133.718 203.814 133.308 203.404 133.308 202.893C133.308 202.382 133.718 201.972 134.229 201.972C134.74 201.972 135.15 202.382 135.15 202.893Z" fill="#992D3B"/>
<path d="M149.754 194.994C149.754 195.418 149.411 195.767 148.981 195.767C148.557 195.767 148.207 195.425 148.207 194.994C148.207 194.571 148.55 194.221 148.981 194.221C149.411 194.221 149.754 194.571 149.754 194.994Z" fill="#992D3B"/>
<path d="M165.622 190.141C165.622 190.484 165.346 190.759 165.003 190.759C164.66 190.759 164.384 190.484 164.384 190.141C164.384 189.798 164.66 189.523 165.003 189.523C165.346 189.523 165.622 189.798 165.622 190.141Z" fill="#992D3B"/>
<path d="M182.128 188.514C182.128 188.258 181.92 188.05 181.664 188.05C181.408 188.05 181.2 188.258 181.2 188.514C181.2 188.77 181.408 188.978 181.664 188.978C181.92 188.978 182.128 188.77 182.128 188.514Z" fill="#992D3B"/>
<path d="M222.792 350.59C222.792 388.96 191.568 420.178 153.183 420.178C114.798 420.178 83.5806 388.96 83.5806 350.59C83.5806 312.221 114.805 280.997 153.183 280.997C191.561 280.997 222.792 312.214 222.792 350.59ZM84.9253 350.59C84.9253 388.221 115.544 418.833 153.183 418.833C190.821 418.833 221.447 388.221 221.447 350.59C221.447 312.96 190.828 282.341 153.183 282.341C115.544 282.341 84.9253 312.96 84.9253 350.59Z" fill="#247C44"/>
<path d="M211.409 350.59C211.409 382.688 185.288 408.797 153.19 408.797C121.085 408.797 94.9703 382.682 94.9703 350.59C94.9703 318.493 121.091 292.384 153.19 292.384C185.288 292.377 211.409 318.493 211.409 350.59ZM99.5692 350.59C99.5692 380.148 123.619 404.192 153.183 404.192C182.746 404.192 206.797 380.148 206.797 350.59C206.797 321.033 182.746 296.989 153.183 296.989C123.619 296.989 99.5692 321.033 99.5692 350.59Z" fill="#867B35"/>
<path d="M200.019 350.59C200.019 376.41 179.008 397.417 153.183 397.417C127.358 397.417 106.347 376.41 106.347 350.59C106.347 324.771 127.358 303.764 153.183 303.764C179.008 303.764 200.019 324.771 200.019 350.59ZM107.691 350.59C107.691 375.671 128.097 396.072 153.183 396.072C178.269 396.072 198.675 375.671 198.675 350.59C198.675 325.51 178.269 305.109 153.183 305.109C128.097 305.109 107.691 325.51 107.691 350.59Z" fill="#247C44"/>
<path d="M188.636 350.59C188.636 370.132 172.735 386.036 153.183 386.036C133.631 386.036 117.729 370.138 117.729 350.59C117.729 331.043 133.631 315.145 153.183 315.145C172.735 315.145 188.636 331.043 188.636 350.59ZM119.081 350.59C119.081 369.392 134.384 384.692 153.19 384.692C171.995 384.692 187.298 369.392 187.298 350.59C187.298 331.789 171.995 316.489 153.19 316.489C134.384 316.489 119.081 331.782 119.081 350.59Z" fill="#247C44"/>
<path d="M177.253 350.591C177.253 363.86 166.455 374.649 153.183 374.649C139.911 374.649 129.119 363.853 129.119 350.591C129.119 337.321 139.917 326.525 153.183 326.525C166.455 326.525 177.253 337.321 177.253 350.591ZM130.464 350.591C130.464 363.114 140.657 373.304 153.183 373.304C165.709 373.304 175.909 363.114 175.909 350.591C175.909 338.067 165.716 327.87 153.183 327.87C140.65 327.87 130.464 338.061 130.464 350.591Z" fill="#247C44"/>
<path d="M165.87 350.59C165.87 357.581 160.182 363.268 153.19 363.268C146.197 363.268 140.509 357.581 140.509 350.59C140.509 343.599 146.197 337.913 153.19 337.913C160.175 337.906 165.87 343.599 165.87 350.59ZM141.847 350.59C141.847 356.842 146.93 361.924 153.183 361.924C159.436 361.924 164.519 356.842 164.519 350.59C164.519 344.339 159.436 339.257 153.183 339.257C146.937 339.25 141.847 344.339 141.847 350.59Z" fill="#247C44"/>
<path d="M261.674 275.821C261.674 231.642 225.852 195.828 181.664 195.828C137.475 195.828 101.653 231.642 101.653 275.821C101.653 320 137.475 355.814 181.664 355.814C225.852 355.814 261.674 320 261.674 275.821Z" fill="#247C44"/>
<path d="M246.491 143.616C230.514 127.642 204.61 127.642 188.632 143.616C172.655 159.59 172.655 185.488 188.632 201.462C204.61 217.436 230.514 217.436 246.491 201.462C262.469 185.488 262.469 159.59 246.491 143.616Z" fill="#867B35"/>
<path d="M232.43 166.291C228.972 158.087 219.518 154.239 211.312 157.696C203.107 161.153 199.258 170.606 202.715 178.809C206.173 187.013 215.628 190.861 223.833 187.404C232.039 183.947 235.888 174.495 232.43 166.291Z" fill="#247C44"/>
<path d="M174.638 52.9968L164.048 42.4095C165.124 44.2917 166.408 46.0327 167.867 47.6124L169.434 49.1786C171.007 50.6373 172.755 51.9212 174.638 52.9968Z" fill="#867B35"/>
<path d="M183.056 56.1562L160.888 33.9934C161.009 34.6051 161.157 35.2101 161.318 35.8084L181.24 55.726C181.839 55.894 182.444 56.0352 183.056 56.1562Z" fill="#867B35"/>
<path d="M188.69 56.7208C188.751 56.7208 188.811 56.7208 188.872 56.7208L160.33 28.1856C160.33 28.2461 160.33 28.3065 160.33 28.367C160.33 28.7771 160.344 29.1872 160.357 29.5972L187.46 56.6939C187.87 56.7074 188.273 56.7208 188.69 56.7208Z" fill="#867B35"/>
<path d="M193.686 56.2772L160.76 23.3591C160.693 23.7557 160.626 24.159 160.572 24.5556L192.482 56.4587C192.892 56.4116 193.289 56.3511 193.686 56.2772Z" fill="#867B35"/>
<path d="M197.868 55.2017L161.843 19.1847C161.722 19.5342 161.614 19.8838 161.507 20.2333L196.812 55.531C197.168 55.4302 197.518 55.3226 197.868 55.2017Z" fill="#867B35"/>
<path d="M201.559 53.6354L163.403 15.4875C163.248 15.7968 163.093 16.106 162.952 16.4219L200.624 54.0925C200.94 53.9446 201.25 53.7967 201.559 53.6354Z" fill="#867B35"/>
<path d="M204.847 51.6726L165.373 12.2072C165.184 12.4828 164.996 12.7584 164.815 13.034L204.013 52.2237C204.295 52.0422 204.571 51.8608 204.847 51.6726Z" fill="#867B35"/>
<path d="M207.771 49.34L167.706 9.28307C167.484 9.52506 167.269 9.77376 167.06 10.0225L207.038 49.992C207.287 49.7769 207.529 49.5618 207.771 49.34Z" fill="#867B35"/>
<path d="M210.353 46.6646L170.382 6.70176C170.133 6.91015 169.884 7.12527 169.642 7.3471L209.708 47.404C209.93 47.162 210.145 46.9133 210.353 46.6646Z" fill="#867B35"/>
<path d="M212.586 43.6397L173.401 4.46331C173.118 4.6448 172.843 4.82631 172.574 5.02125L212.034 44.4732C212.222 44.1976 212.411 43.922 212.586 43.6397Z" fill="#867B35"/>
<path d="M214.448 40.245L176.803 2.60799C176.487 2.75588 176.177 2.90379 175.868 3.0584L213.997 41.1793C214.152 40.8701 214.3 40.5609 214.448 40.245Z" fill="#867B35"/>
<path d="M215.887 36.4268L180.622 1.16277C180.265 1.27033 179.916 1.37787 179.573 1.49215L215.564 37.4755C215.672 37.1327 215.779 36.7831 215.887 36.4268Z" fill="#867B35"/>
<path d="M216.808 32.0978L184.952 0.24857C184.548 0.302347 184.152 0.362818 183.748 0.430039L216.62 33.2943C216.694 32.8977 216.754 32.5012 216.808 32.0978Z" fill="#867B35"/>
<path d="M217.057 28.3603C217.057 27.9234 217.043 27.4865 217.023 27.0563L189.994 0.0334792C189.564 0.013313 189.127 -0.000122978 188.69 -0.000122959C188.656 -0.000122957 188.616 -0.000122956 188.582 -0.000122954L217.05 28.4612C217.05 28.4343 217.057 28.3939 217.057 28.3603Z" fill="#867B35"/>
<path d="M216.035 20.8114L196.241 1.0216C195.642 0.853545 195.03 0.705683 194.418 0.584686L216.478 22.6399C216.351 22.0214 216.203 21.4097 216.035 20.8114Z" fill="#867B35"/>
<path d="M202.917 3.82468L213.231 14.1364C210.75 9.86786 207.186 6.30513 202.917 3.82468Z" fill="#867B35"/>
<path d="M330.409 375.986L319.275 364.855C320.405 366.831 321.756 368.666 323.289 370.326L324.936 371.973C326.604 373.506 328.433 374.857 330.409 375.986Z" fill="#247C44"/>
<path d="M339.257 379.307L315.954 356.008C316.081 356.654 316.236 357.286 316.404 357.917L337.348 378.857C337.98 379.032 338.619 379.179 339.257 379.307Z" fill="#247C44"/>
<path d="M345.181 379.899C345.241 379.899 345.309 379.899 345.369 379.899L315.369 349.905C315.369 349.965 315.369 350.032 315.369 350.093C315.369 350.523 315.382 350.96 315.395 351.384L343.89 379.872C344.32 379.885 344.751 379.899 345.181 379.899Z" fill="#247C44"/>
<path d="M350.439 379.435L315.833 344.836C315.759 345.253 315.691 345.677 315.638 346.093L349.181 379.63C349.598 379.576 350.022 379.509 350.439 379.435Z" fill="#247C44"/>
<path d="M354.829 378.306L316.962 340.447C316.834 340.81 316.72 341.179 316.612 341.549L353.726 378.655C354.096 378.548 354.466 378.427 354.829 378.306Z" fill="#247C44"/>
<path d="M358.709 376.659L318.603 336.561C318.435 336.884 318.28 337.213 318.125 337.543L357.727 377.136C358.063 376.981 358.386 376.827 358.709 376.659Z" fill="#247C44"/>
<path d="M362.165 374.588L320.674 333.106C320.472 333.395 320.277 333.684 320.089 333.98L361.291 375.173C361.593 374.985 361.882 374.79 362.165 374.588Z" fill="#247C44"/>
<path d="M365.244 372.141L323.128 330.034C322.899 330.29 322.67 330.545 322.449 330.807L364.471 372.82C364.733 372.598 364.989 372.377 365.244 372.141Z" fill="#247C44"/>
<path d="M367.954 369.332L325.938 327.325C325.676 327.547 325.414 327.776 325.158 328.004L367.274 370.111C367.51 369.849 367.732 369.594 367.954 369.332Z" fill="#247C44"/>
<path d="M370.307 366.152L329.118 324.972C328.822 325.161 328.533 325.356 328.244 325.557L369.722 367.026C369.917 366.737 370.112 366.448 370.307 366.152Z" fill="#247C44"/>
<path d="M372.257 362.583L332.688 323.023C332.359 323.178 332.03 323.332 331.707 323.5L371.786 363.571C371.947 363.241 372.109 362.912 372.257 362.583Z" fill="#247C44"/>
<path d="M373.77 358.57L336.696 321.504C336.326 321.611 335.956 321.732 335.593 321.853L373.42 359.672C373.548 359.316 373.662 358.946 373.77 358.57Z" fill="#247C44"/>
<path d="M374.738 354.019L341.254 320.543C340.831 320.596 340.407 320.664 339.99 320.738L374.543 355.282C374.623 354.859 374.684 354.442 374.738 354.019Z" fill="#247C44"/>
<path d="M375 350.093C375 349.629 374.986 349.172 374.966 348.722L346.559 320.321C346.102 320.301 345.645 320.287 345.188 320.287C345.147 320.287 345.114 320.287 345.073 320.287L375 350.207C375 350.167 375 350.127 375 350.093Z" fill="#247C44"/>
<path d="M373.931 342.154L353.121 321.349C352.489 321.174 351.851 321.02 351.205 320.885L374.395 344.07C374.26 343.425 374.099 342.786 373.931 342.154Z" fill="#247C44"/>
<path d="M360.141 324.3L370.986 335.143C368.371 330.653 364.625 326.908 360.141 324.3Z" fill="#247C44"/>
<path d="M20.2849 291.94L9.15063 280.808C10.2802 282.785 11.6316 284.62 13.1646 286.28L14.8119 287.927C16.4726 289.46 18.3081 290.811 20.2849 291.94Z" fill="#247C44"/>
<path d="M29.133 295.261L5.8291 271.962C5.95685 272.607 6.11149 273.239 6.27958 273.871L27.2235 294.811C27.8555 294.979 28.4875 295.133 29.133 295.261Z" fill="#247C44"/>
<path d="M35.0565 295.852C35.117 295.852 35.1843 295.852 35.2448 295.852L5.24426 265.852C5.24426 265.912 5.24426 265.979 5.24426 266.04C5.24426 266.477 5.25771 266.907 5.27116 267.331L33.7656 295.819C34.1959 295.839 34.6262 295.852 35.0565 295.852Z" fill="#247C44"/>
<path d="M40.3143 295.389L5.70817 260.79C5.63421 261.207 5.56697 261.63 5.51318 262.047L39.057 295.584C39.4739 295.53 39.8975 295.463 40.3143 295.389Z" fill="#247C44"/>
<path d="M44.7049 294.259L6.83778 256.401C6.71004 256.764 6.59573 257.133 6.48816 257.503L43.6022 294.609C43.972 294.495 44.3418 294.38 44.7049 294.259Z" fill="#247C44"/>
<path d="M48.5844 292.612L8.47835 252.515C8.31698 252.838 8.15562 253.167 8.00097 253.497L47.6028 293.09C47.9322 292.935 48.2617 292.78 48.5844 292.612Z" fill="#247C44"/>
<path d="M52.0403 290.542L10.5492 249.06C10.3475 249.349 10.1525 249.638 9.96423 249.934L51.1662 291.127C51.4621 290.939 51.7512 290.744 52.0403 290.542Z" fill="#247C44"/>
<path d="M55.1197 288.095L13.0033 245.988C12.7747 246.243 12.5461 246.499 12.3242 246.761L54.3465 288.774C54.602 288.552 54.8642 288.324 55.1197 288.095Z" fill="#247C44"/>
<path d="M57.8293 285.279L15.8137 243.272C15.5515 243.494 15.2893 243.723 15.0338 243.951L57.1502 286.058C57.3788 285.803 57.6074 285.547 57.8293 285.279Z" fill="#247C44"/>
<path d="M60.1759 282.106L18.9873 240.926C18.6915 241.114 18.4024 241.309 18.1133 241.511L59.5977 282.98C59.7926 282.691 59.9876 282.402 60.1759 282.106Z" fill="#247C44"/>
<path d="M62.1326 278.536L22.5644 238.977C22.2349 239.131 21.9055 239.286 21.5828 239.454L61.6619 279.524C61.8233 279.195 61.9779 278.866 62.1326 278.536Z" fill="#247C44"/>
<path d="M63.6453 274.523L26.5715 237.458C26.2017 237.565 25.8319 237.686 25.4689 237.807L63.2956 275.626C63.4234 275.263 63.5377 274.893 63.6453 274.523Z" fill="#247C44"/>
<path d="M64.6135 269.966L31.1301 236.49C30.7065 236.543 30.2829 236.611 29.8661 236.685L64.4185 271.229C64.4924 270.813 64.5597 270.389 64.6135 269.966Z" fill="#247C44"/>
<path d="M64.8756 266.04C64.8756 265.576 64.8621 265.119 64.8419 264.669L36.4349 236.268C35.9777 236.248 35.5205 236.234 35.0633 236.234C35.0229 236.234 34.9893 236.234 34.949 236.234L64.8756 266.154C64.8688 266.121 64.8756 266.08 64.8756 266.04Z" fill="#247C44"/>
<path d="M63.7999 258.108L42.9904 237.303C42.3584 237.128 41.7197 236.974 41.0742 236.839L64.2638 260.024C64.1293 259.378 63.9747 258.74 63.7999 258.108Z" fill="#247C44"/>
<path d="M50.0098 240.254L60.8549 251.097C58.2461 246.606 54.5011 242.862 50.0098 240.254Z" fill="#247C44"/>
<path d="M0 361.184L26.1748 361.184L26.1748 335.015L-1.14414e-06 335.015L0 361.184ZM22.5307 338.659L22.5307 357.541L3.64417 357.541L3.64417 338.659L22.5307 338.659Z" fill="#867B35"/>
<path d="M28.2523 428.721L41.1212 428.735L34.6935 417.59L28.2523 428.721Z" fill="#992D3B"/>
<path d="M21.0985 413.281L48.2886 413.301L34.7137 389.747L21.0985 413.281ZM27.4859 409.604L34.707 397.121L41.9079 409.61L27.4859 409.604Z" fill="#247C44"/>
<path d="M300.92 362.778L300.946 331.157L273.548 346.947L300.92 362.778ZM296.637 355.35L282.121 346.954L296.65 338.578L296.637 355.35Z" fill="#247C44"/>
<path d="M321.42 303.092C306.352 303.092 294.142 290.885 294.142 275.821C294.142 260.756 306.352 248.549 321.42 248.549L321.42 303.092Z" fill="#992D3B"/>
<path d="M112.142 433.81L112.142 492.05L83.0157 462.93L112.142 433.81Z" fill="#992D3B"/>
<path d="M349.753 470.607C318.051 470.607 292.347 496.298 292.347 528L314.884 528C314.884 508.748 330.497 493.139 349.753 493.139L349.753 470.607Z" fill="#867B35"/>
<path d="M13.5748 23.7423L13.5748 59.9139L49.8081 59.9139L49.8081 23.7423L13.5748 23.7423Z" fill="#867B35"/>
<path d="M23.8887 34.0406L23.8887 49.6157L39.4873 49.6157L39.4873 34.0406L23.8887 34.0406Z" fill="#992D3B"/>
</svg>
